<mxfile host="Electron" modified="2024-07-23T01:05:27.482Z" agent="Mozilla/5.0 (Macintosh; Intel Mac OS X 10_15_7) AppleWebKit/537.36 (KHTML, like Gecko) draw.io/24.6.1 Chrome/124.0.6367.207 Electron/30.0.6 Safari/537.36" etag="EoCjNf5Lv3uMrRhl_uUX" version="24.6.1" type="device">
  <diagram name="第 1 页" id="OPNZHjLj4EeVt9BAlshu">
    <mxGraphModel dx="1434" dy="769" grid="1" gridSize="10" guides="1" tooltips="1" connect="1" arrows="1" fold="1" page="1" pageScale="1" pageWidth="827" pageHeight="1169" math="0" shadow="0">
      <root>
        <mxCell id="0" />
        <mxCell id="1" parent="0" />
        <mxCell id="fdpDCFg-NzPG3DscGwCP-11" value="&lt;article data-content=&quot;[{&amp;quot;type&amp;quot;:&amp;quot;block&amp;quot;,&amp;quot;id&amp;quot;:&amp;quot;wYMw-1721447536406&amp;quot;,&amp;quot;name&amp;quot;:&amp;quot;code&amp;quot;,&amp;quot;data&amp;quot;:{&amp;quot;language&amp;quot;:&amp;quot;&amp;quot;,&amp;quot;theme&amp;quot;:&amp;quot;default&amp;quot;,&amp;quot;version&amp;quot;:1},&amp;quot;nodes&amp;quot;:[{&amp;quot;type&amp;quot;:&amp;quot;block&amp;quot;,&amp;quot;id&amp;quot;:&amp;quot;BwX8-1721447536405&amp;quot;,&amp;quot;name&amp;quot;:&amp;quot;code-line&amp;quot;,&amp;quot;data&amp;quot;:{},&amp;quot;nodes&amp;quot;:[{&amp;quot;type&amp;quot;:&amp;quot;text&amp;quot;,&amp;quot;id&amp;quot;:&amp;quot;Ct8M-1721447536404&amp;quot;,&amp;quot;leaves&amp;quot;:[{&amp;quot;text&amp;quot;:&amp;quot;Manager&amp;quot;,&amp;quot;marks&amp;quot;:[]}]}]}],&amp;quot;state&amp;quot;:{}}]&quot;&gt;&lt;div data-language=&quot;&quot; style=&quot;white-space-collapse: preserve;&quot; data-theme=&quot;default&quot;&gt;&lt;span style=&quot;background-color: initial; white-space-collapse: collapse;&quot;&gt;Scrape&amp;nbsp;&lt;/span&gt;Manager&lt;/div&gt;&lt;/article&gt;" style="swimlane;fontStyle=0;childLayout=stackLayout;horizontal=1;startSize=30;horizontalStack=0;resizeParent=1;resizeParentMax=0;resizeLast=0;collapsible=1;marginBottom=0;whiteSpace=wrap;html=1;fillColor=#ffcc99;strokeColor=#36393d;" parent="1" vertex="1">
          <mxGeometry x="500" y="220" width="140" height="60" as="geometry" />
        </mxCell>
        <mxCell id="fdpDCFg-NzPG3DscGwCP-13" value="&lt;article data-content=&quot;[{&amp;quot;type&amp;quot;:&amp;quot;block&amp;quot;,&amp;quot;id&amp;quot;:&amp;quot;wYMw-1721447536406&amp;quot;,&amp;quot;name&amp;quot;:&amp;quot;code&amp;quot;,&amp;quot;data&amp;quot;:{&amp;quot;language&amp;quot;:&amp;quot;&amp;quot;,&amp;quot;theme&amp;quot;:&amp;quot;default&amp;quot;,&amp;quot;version&amp;quot;:1},&amp;quot;nodes&amp;quot;:[{&amp;quot;type&amp;quot;:&amp;quot;block&amp;quot;,&amp;quot;id&amp;quot;:&amp;quot;zmjt-1721447626092&amp;quot;,&amp;quot;name&amp;quot;:&amp;quot;code-line&amp;quot;,&amp;quot;data&amp;quot;:{},&amp;quot;nodes&amp;quot;:[{&amp;quot;type&amp;quot;:&amp;quot;text&amp;quot;,&amp;quot;id&amp;quot;:&amp;quot;NunP-1721447626090&amp;quot;,&amp;quot;leaves&amp;quot;:[{&amp;quot;text&amp;quot;:&amp;quot;targetSets&amp;quot;,&amp;quot;marks&amp;quot;:[]}]}]}],&amp;quot;state&amp;quot;:{}}]&quot;&gt;&lt;div data-language=&quot;&quot; style=&quot;white-space-collapse: preserve;&quot; data-theme=&quot;default&quot;&gt;targetSets&lt;/div&gt;&lt;/article&gt;" style="text;strokeColor=#A50040;fillColor=#d80073;align=left;verticalAlign=middle;spacingLeft=4;spacingRight=4;overflow=hidden;points=[[0,0.5],[1,0.5]];portConstraint=eastwest;rotatable=0;whiteSpace=wrap;html=1;fontColor=#ffffff;" parent="fdpDCFg-NzPG3DscGwCP-11" vertex="1">
          <mxGeometry y="30" width="140" height="30" as="geometry" />
        </mxCell>
        <mxCell id="fdpDCFg-NzPG3DscGwCP-40" style="edgeStyle=orthogonalEdgeStyle;rounded=0;orthogonalLoop=1;jettySize=auto;html=1;exitX=1;exitY=0.5;exitDx=0;exitDy=0;entryX=0;entryY=0.5;entryDx=0;entryDy=0;strokeWidth=2;strokeColor=#b85450;fillColor=#f8cecc;" parent="1" target="fdpDCFg-NzPG3DscGwCP-39" edge="1">
          <mxGeometry relative="1" as="geometry">
            <Array as="points">
              <mxPoint x="1330" y="380" />
              <mxPoint x="1330" y="525" />
            </Array>
            <mxPoint x="1070" y="380" as="sourcePoint" />
          </mxGeometry>
        </mxCell>
        <mxCell id="fdpDCFg-NzPG3DscGwCP-41" style="edgeStyle=orthogonalEdgeStyle;rounded=0;orthogonalLoop=1;jettySize=auto;html=1;exitX=1;exitY=0.5;exitDx=0;exitDy=0;entryX=0;entryY=0.5;entryDx=0;entryDy=0;strokeWidth=2;strokeColor=#b85450;fillColor=#f8cecc;" parent="1" target="fdpDCFg-NzPG3DscGwCP-29" edge="1">
          <mxGeometry relative="1" as="geometry">
            <Array as="points">
              <mxPoint x="1330" y="380" />
              <mxPoint x="1330" y="270" />
            </Array>
            <mxPoint x="1070" y="380" as="sourcePoint" />
          </mxGeometry>
        </mxCell>
        <mxCell id="fdpDCFg-NzPG3DscGwCP-42" style="edgeStyle=orthogonalEdgeStyle;rounded=0;orthogonalLoop=1;jettySize=auto;html=1;exitX=1;exitY=0.5;exitDx=0;exitDy=0;strokeWidth=2;strokeColor=#b85450;fillColor=#f8cecc;" parent="1" target="fdpDCFg-NzPG3DscGwCP-38" edge="1">
          <mxGeometry relative="1" as="geometry">
            <mxPoint x="1070" y="380" as="sourcePoint" />
          </mxGeometry>
        </mxCell>
        <mxCell id="ectriL-UAdFPaz4sZdjl-3" style="edgeStyle=orthogonalEdgeStyle;rounded=0;orthogonalLoop=1;jettySize=auto;html=1;exitX=1;exitY=0.5;exitDx=0;exitDy=0;strokeWidth=2;strokeColor=#FF3399;" edge="1" parent="1" source="fdpDCFg-NzPG3DscGwCP-29">
          <mxGeometry relative="1" as="geometry">
            <mxPoint x="560" y="330" as="targetPoint" />
            <Array as="points">
              <mxPoint x="1650" y="270" />
              <mxPoint x="1650" y="920" />
              <mxPoint x="561" y="920" />
            </Array>
          </mxGeometry>
        </mxCell>
        <mxCell id="fdpDCFg-NzPG3DscGwCP-29" value="" style="rounded=1;whiteSpace=wrap;html=1;fillColor=#fff2cc;strokeColor=#d6b656;" parent="1" vertex="1">
          <mxGeometry x="1370" y="240" width="120" height="60" as="geometry" />
        </mxCell>
        <mxCell id="ectriL-UAdFPaz4sZdjl-2" style="edgeStyle=orthogonalEdgeStyle;rounded=0;orthogonalLoop=1;jettySize=auto;html=1;exitX=1;exitY=0.5;exitDx=0;exitDy=0;strokeWidth=2;strokeColor=#FF3399;" edge="1" parent="1" source="fdpDCFg-NzPG3DscGwCP-38">
          <mxGeometry relative="1" as="geometry">
            <mxPoint x="560" y="320" as="targetPoint" />
            <Array as="points">
              <mxPoint x="1540" y="380" />
              <mxPoint x="1540" y="870" />
              <mxPoint x="561" y="870" />
            </Array>
          </mxGeometry>
        </mxCell>
        <mxCell id="fdpDCFg-NzPG3DscGwCP-38" value="scrapePool" style="rounded=1;whiteSpace=wrap;html=1;fillColor=#fff2cc;strokeColor=#d6b656;" parent="1" vertex="1">
          <mxGeometry x="1370" y="350" width="120" height="60" as="geometry" />
        </mxCell>
        <mxCell id="fdpDCFg-NzPG3DscGwCP-39" value="scrapePool" style="rounded=1;whiteSpace=wrap;html=1;fillColor=#fff2cc;strokeColor=#d6b656;" parent="1" vertex="1">
          <mxGeometry x="1370" y="495" width="120" height="60" as="geometry" />
        </mxCell>
        <mxCell id="fdpDCFg-NzPG3DscGwCP-43" value="jobname-1" style="text;html=1;align=center;verticalAlign=middle;whiteSpace=wrap;rounded=0;" parent="1" vertex="1">
          <mxGeometry x="1359" y="210" width="60" height="30" as="geometry" />
        </mxCell>
        <mxCell id="fdpDCFg-NzPG3DscGwCP-44" value="jobname-2" style="text;html=1;align=center;verticalAlign=middle;whiteSpace=wrap;rounded=0;" parent="1" vertex="1">
          <mxGeometry x="1359" y="325" width="60" height="30" as="geometry" />
        </mxCell>
        <mxCell id="fdpDCFg-NzPG3DscGwCP-45" value="jobname-N" style="text;html=1;align=center;verticalAlign=middle;whiteSpace=wrap;rounded=0;" parent="1" vertex="1">
          <mxGeometry x="1344.5" y="470" width="89" height="30" as="geometry" />
        </mxCell>
        <mxCell id="fdpDCFg-NzPG3DscGwCP-46" value="scrapePool" style="text;html=1;align=center;verticalAlign=middle;whiteSpace=wrap;rounded=0;" parent="1" vertex="1">
          <mxGeometry x="1400" y="255" width="60" height="30" as="geometry" />
        </mxCell>
        <mxCell id="fdpDCFg-NzPG3DscGwCP-47" value="&lt;font style=&quot;font-size: 30px;&quot;&gt;...&lt;/font&gt;" style="text;html=1;align=center;verticalAlign=middle;whiteSpace=wrap;rounded=0;" parent="1" vertex="1">
          <mxGeometry x="1395.5" y="420" width="60" height="30" as="geometry" />
        </mxCell>
        <mxCell id="fdpDCFg-NzPG3DscGwCP-48" value="&lt;article data-content=&quot;[{&amp;quot;type&amp;quot;:&amp;quot;block&amp;quot;,&amp;quot;id&amp;quot;:&amp;quot;wYMw-1721447536406&amp;quot;,&amp;quot;name&amp;quot;:&amp;quot;code&amp;quot;,&amp;quot;data&amp;quot;:{&amp;quot;language&amp;quot;:&amp;quot;&amp;quot;,&amp;quot;theme&amp;quot;:&amp;quot;default&amp;quot;,&amp;quot;version&amp;quot;:1},&amp;quot;nodes&amp;quot;:[{&amp;quot;type&amp;quot;:&amp;quot;block&amp;quot;,&amp;quot;id&amp;quot;:&amp;quot;qOg6-1721447632271&amp;quot;,&amp;quot;name&amp;quot;:&amp;quot;code-line&amp;quot;,&amp;quot;data&amp;quot;:{},&amp;quot;nodes&amp;quot;:[{&amp;quot;type&amp;quot;:&amp;quot;text&amp;quot;,&amp;quot;id&amp;quot;:&amp;quot;eazO-1721447632269&amp;quot;,&amp;quot;leaves&amp;quot;:[{&amp;quot;text&amp;quot;:&amp;quot;triggerReload&amp;quot;,&amp;quot;marks&amp;quot;:[]}]}]}],&amp;quot;state&amp;quot;:{}}]&quot;&gt;&lt;div data-language=&quot;&quot; style=&quot;white-space-collapse: preserve;&quot; data-theme=&quot;default&quot;&gt;&lt;article data-content=&quot;[{&amp;quot;type&amp;quot;:&amp;quot;block&amp;quot;,&amp;quot;id&amp;quot;:&amp;quot;wYMw-1721447536406&amp;quot;,&amp;quot;name&amp;quot;:&amp;quot;code&amp;quot;,&amp;quot;data&amp;quot;:{&amp;quot;language&amp;quot;:&amp;quot;&amp;quot;,&amp;quot;theme&amp;quot;:&amp;quot;default&amp;quot;,&amp;quot;version&amp;quot;:1},&amp;quot;nodes&amp;quot;:[{&amp;quot;type&amp;quot;:&amp;quot;block&amp;quot;,&amp;quot;id&amp;quot;:&amp;quot;fw5M-1721453180857&amp;quot;,&amp;quot;name&amp;quot;:&amp;quot;code-line&amp;quot;,&amp;quot;data&amp;quot;:{},&amp;quot;nodes&amp;quot;:[{&amp;quot;type&amp;quot;:&amp;quot;text&amp;quot;,&amp;quot;id&amp;quot;:&amp;quot;NZXH-1721453180854&amp;quot;,&amp;quot;leaves&amp;quot;:[{&amp;quot;text&amp;quot;:&amp;quot;scrapePools&amp;quot;,&amp;quot;marks&amp;quot;:[]}]}]}],&amp;quot;state&amp;quot;:{}}]&quot;&gt;&lt;div data-language=&quot;&quot; data-theme=&quot;default&quot;&gt;scrapePools&lt;/div&gt;&lt;/article&gt;&lt;/div&gt;&lt;/article&gt;" style="text;strokeColor=#6c8ebf;fillColor=#dae8fc;align=left;verticalAlign=middle;spacingLeft=4;spacingRight=4;overflow=hidden;points=[[0,0.5],[1,0.5]];portConstraint=eastwest;rotatable=0;whiteSpace=wrap;html=1;perimeterSpacing=1;" parent="1" vertex="1">
          <mxGeometry x="500" y="280" width="140" height="40" as="geometry" />
        </mxCell>
        <mxCell id="fdpDCFg-NzPG3DscGwCP-57" value="scrapePool存储到&lt;span style=&quot;background-color: initial;&quot;&gt;Scrape&lt;/span&gt;&lt;span style=&quot;white-space-collapse: preserve;&quot;&gt;Manager的&lt;/span&gt;&lt;span style=&quot;white-space-collapse: preserve; text-align: left;&quot;&gt;scrapePools中,&lt;/span&gt;&lt;span style=&quot;text-align: left; white-space-collapse: preserve; background-color: initial;&quot;&gt;key 为job_name&lt;/span&gt;" style="text;html=1;align=center;verticalAlign=middle;whiteSpace=wrap;rounded=0;" parent="1" vertex="1">
          <mxGeometry x="840" y="780" width="410" height="30" as="geometry" />
        </mxCell>
        <mxCell id="fdpDCFg-NzPG3DscGwCP-59" value="&lt;b style=&quot;font-size: 14px;&quot;&gt;&lt;font style=&quot;font-size: 14px;&quot;&gt;为每个jobname创建独立的scrapePool&lt;/font&gt;&lt;/b&gt;&lt;div style=&quot;font-size: 14px;&quot;&gt;&lt;b&gt;&lt;font style=&quot;font-size: 14px;&quot;&gt;将&lt;span style=&quot;background-color: initial;&quot;&gt;scrapePool存储于&lt;/span&gt;&lt;span style=&quot;background-color: initial;&quot;&gt;Scrape&amp;nbsp;&lt;/span&gt;&lt;span style=&quot;background-color: initial; white-space-collapse: preserve;&quot;&gt;Manager的&lt;/span&gt;&lt;span style=&quot;background-color: initial; white-space-collapse: preserve; text-align: left;&quot;&gt;scrapePools中&lt;/span&gt;&lt;/font&gt;&lt;/b&gt;&lt;/div&gt;" style="text;html=1;align=center;verticalAlign=middle;whiteSpace=wrap;rounded=0;" parent="1" vertex="1">
          <mxGeometry x="775" y="470" width="580" height="30" as="geometry" />
        </mxCell>
        <mxCell id="XsaYZCnVBgNQdDiTwEfk-4" value="&lt;font color=&quot;#f7f7f7&quot;&gt;tyltr&lt;/font&gt;" style="text;html=1;align=center;verticalAlign=middle;whiteSpace=wrap;rounded=0;shadow=1;" parent="1" vertex="1">
          <mxGeometry x="510" y="700" width="60" height="30" as="geometry" />
        </mxCell>
        <mxCell id="XsaYZCnVBgNQdDiTwEfk-6" value="&lt;font color=&quot;#f5f5f5&quot;&gt;tyltr&lt;/font&gt;" style="text;html=1;align=center;verticalAlign=middle;whiteSpace=wrap;rounded=0;shadow=1;" parent="1" vertex="1">
          <mxGeometry x="440" y="670" width="60" height="30" as="geometry" />
        </mxCell>
        <mxCell id="XsaYZCnVBgNQdDiTwEfk-7" value="&lt;font color=&quot;#e6e6e6&quot;&gt;tyltr&lt;/font&gt;" style="text;html=1;align=center;verticalAlign=middle;whiteSpace=wrap;rounded=0;shadow=1;" parent="1" vertex="1">
          <mxGeometry x="460" y="520" width="60" height="30" as="geometry" />
        </mxCell>
        <mxCell id="XsaYZCnVBgNQdDiTwEfk-8" value="&lt;font color=&quot;#e6e6e6&quot;&gt;tyltr&lt;/font&gt;" style="text;html=1;align=center;verticalAlign=middle;whiteSpace=wrap;rounded=0;shadow=1;" parent="1" vertex="1">
          <mxGeometry x="960" y="510" width="60" height="30" as="geometry" />
        </mxCell>
        <mxCell id="XsaYZCnVBgNQdDiTwEfk-9" value="&lt;font color=&quot;#e6e6e6&quot;&gt;tyltr&lt;/font&gt;" style="text;html=1;align=center;verticalAlign=middle;whiteSpace=wrap;rounded=0;shadow=1;" parent="1" vertex="1">
          <mxGeometry x="820" y="495" width="60" height="30" as="geometry" />
        </mxCell>
        <mxCell id="XsaYZCnVBgNQdDiTwEfk-10" value="&lt;font color=&quot;#e6e6e6&quot;&gt;tyltr&lt;/font&gt;" style="text;html=1;align=center;verticalAlign=middle;whiteSpace=wrap;rounded=0;shadow=1;" parent="1" vertex="1">
          <mxGeometry x="1110" y="260" width="60" height="30" as="geometry" />
        </mxCell>
        <mxCell id="XsaYZCnVBgNQdDiTwEfk-11" value="&lt;font color=&quot;#e6e6e6&quot;&gt;tyltr&lt;/font&gt;" style="text;html=1;align=center;verticalAlign=middle;whiteSpace=wrap;rounded=0;shadow=1;" parent="1" vertex="1">
          <mxGeometry x="810" y="150" width="60" height="30" as="geometry" />
        </mxCell>
        <mxCell id="XsaYZCnVBgNQdDiTwEfk-12" value="&lt;font color=&quot;#e6e6e6&quot;&gt;tyltr&lt;/font&gt;" style="text;html=1;align=center;verticalAlign=middle;whiteSpace=wrap;rounded=0;shadow=1;" parent="1" vertex="1">
          <mxGeometry x="1284.5" y="580" width="60" height="30" as="geometry" />
        </mxCell>
        <mxCell id="XsaYZCnVBgNQdDiTwEfk-13" value="&lt;font color=&quot;#e6e6e6&quot;&gt;tyltr&lt;/font&gt;" style="text;html=1;align=center;verticalAlign=middle;whiteSpace=wrap;rounded=0;shadow=1;" parent="1" vertex="1">
          <mxGeometry x="1520" y="770" width="60" height="40" as="geometry" />
        </mxCell>
        <mxCell id="p6FOKCq6we9kJBb8H901-7" style="edgeStyle=orthogonalEdgeStyle;rounded=0;orthogonalLoop=1;jettySize=auto;html=1;exitX=0.5;exitY=1;exitDx=0;exitDy=0;entryX=0;entryY=0.5;entryDx=0;entryDy=0;strokeWidth=2;" parent="1" source="p6FOKCq6we9kJBb8H901-3" target="fdpDCFg-NzPG3DscGwCP-38" edge="1">
          <mxGeometry relative="1" as="geometry" />
        </mxCell>
        <mxCell id="p6FOKCq6we9kJBb8H901-3" value="" style="rounded=1;whiteSpace=wrap;html=1;" parent="1" vertex="1">
          <mxGeometry x="920" y="235" width="170" height="60" as="geometry" />
        </mxCell>
        <mxCell id="p6FOKCq6we9kJBb8H901-4" style="edgeStyle=orthogonalEdgeStyle;rounded=0;orthogonalLoop=1;jettySize=auto;html=1;exitX=1;exitY=0.5;exitDx=0;exitDy=0;entryX=0;entryY=0.5;entryDx=0;entryDy=0;" parent="1" source="fdpDCFg-NzPG3DscGwCP-13" target="p6FOKCq6we9kJBb8H901-3" edge="1">
          <mxGeometry relative="1" as="geometry" />
        </mxCell>
        <mxCell id="p6FOKCq6we9kJBb8H901-5" value="遍历targetSets&lt;div&gt;创建&lt;span style=&quot;background-color: initial;&quot;&gt;scrapePool&lt;/span&gt;&lt;/div&gt;" style="text;html=1;align=center;verticalAlign=middle;whiteSpace=wrap;rounded=0;" parent="1" vertex="1">
          <mxGeometry x="950" y="250" width="110" height="30" as="geometry" />
        </mxCell>
        <mxCell id="ectriL-UAdFPaz4sZdjl-1" style="edgeStyle=orthogonalEdgeStyle;rounded=0;orthogonalLoop=1;jettySize=auto;html=1;exitX=0.5;exitY=1;exitDx=0;exitDy=0;entryX=0.437;entryY=0.976;entryDx=0;entryDy=0;entryPerimeter=0;strokeWidth=2;strokeColor=#FF3399;" edge="1" parent="1" source="fdpDCFg-NzPG3DscGwCP-39" target="fdpDCFg-NzPG3DscGwCP-48">
          <mxGeometry relative="1" as="geometry">
            <Array as="points">
              <mxPoint x="1430" y="820" />
              <mxPoint x="561" y="820" />
            </Array>
          </mxGeometry>
        </mxCell>
      </root>
    </mxGraphModel>
  </diagram>
</mxfile>
